<svg width="20" height="19" viewBox="0 0 20 19" fill="none" xmlns="http://www.w3.org/2000/svg">
<path d="M17 0C17.7956 0 18.5587 0.316071 19.1213 0.87868C19.6839 1.44129 20 2.20435 20 3V13C20 13.7956 19.6839 14.5587 19.1213 15.1213C18.5587 15.6839 17.7956 16 17 16H5.333L2 18.5C1.176 19.118 0 18.53 0 17.5V3C0 2.20435 0.316071 1.44129 0.87868 0.87868C1.44129 0.316071 2.20435 0 3 0H17ZM17 2H3C2.73478 2 2.48043 2.10536 2.29289 2.29289C2.10536 2.48043 2 2.73478 2 3V16L4.133 14.4C4.47919 14.1404 4.90026 14 5.333 14H17C17.2652 14 17.5196 13.8946 17.7071 13.7071C17.8946 13.5196 18 13.2652 18 13V3C18 2.73478 17.8946 2.48043 17.7071 2.29289C17.5196 2.10536 17.2652 2 17 2ZM9 9C9.25488 9.00028 9.50003 9.09788 9.68537 9.27285C9.8707 9.44782 9.98224 9.68695 9.99717 9.94139C10.0121 10.1958 9.92933 10.4464 9.76574 10.6418C9.60215 10.8373 9.3701 10.9629 9.117 10.993L9 11H6C5.74512 10.9997 5.49997 10.9021 5.31463 10.7272C5.1293 10.5522 5.01777 10.313 5.00283 10.0586C4.98789 9.80416 5.07067 9.55362 5.23426 9.35817C5.39786 9.16271 5.6299 9.0371 5.883 9.007L6 9H9ZM14 5C14.2652 5 14.5196 5.10536 14.7071 5.29289C14.8946 5.48043 15 5.73478 15 6C15 6.26522 14.8946 6.51957 14.7071 6.70711C14.5196 6.89464 14.2652 7 14 7H6C5.73478 7 5.48043 6.89464 5.29289 6.70711C5.10536 6.51957 5 6.26522 5 6C5 5.73478 5.10536 5.48043 5.29289 5.29289C5.48043 5.10536 5.73478 5 6 5H14Z" fill="black"/>
</svg>
