<svg width="24" height="25" viewBox="0 0 24 25" fill="none" xmlns="http://www.w3.org/2000/svg">
<g id="mingcute:star-fill" clip-path="url(#clip0_23_2027)">
<g id="Group">
<path id="Vector" d="M10.92 3.36819C11.03 3.17935 11.1877 3.02267 11.3772 2.91377C11.5667 2.80487 11.7814 2.74756 12 2.74756C12.2186 2.74756 12.4333 2.80487 12.6228 2.91377C12.8123 3.02267 12.97 3.17935 13.08 3.36819L15.875 8.16619L21.303 9.34219C21.5165 9.38859 21.7141 9.49014 21.8762 9.63673C22.0382 9.78331 22.159 9.9698 22.2265 10.1776C22.2939 10.3854 22.3058 10.6073 22.2608 10.8211C22.2158 11.0349 22.1155 11.2332 21.97 11.3962L18.27 15.5372L18.83 21.0622C18.8521 21.2798 18.8167 21.4993 18.7274 21.6989C18.6381 21.8985 18.498 22.0712 18.3211 22.1997C18.1442 22.3283 17.9367 22.4082 17.7192 22.4314C17.5018 22.4546 17.2821 22.4204 17.082 22.3322L12 20.0922L6.918 22.3322C6.71792 22.4204 6.49819 22.4546 6.28075 22.4314C6.06332 22.4082 5.85578 22.3283 5.67887 22.1997C5.50196 22.0712 5.36186 21.8985 5.27257 21.6989C5.18327 21.4993 5.14791 21.2798 5.17 21.0622L5.73 15.5372L2.03 11.3972C1.88423 11.2342 1.78376 11.0359 1.73861 10.8219C1.69347 10.608 1.70524 10.3859 1.77274 10.1779C1.84025 9.96997 1.96112 9.78335 2.12331 9.63669C2.28549 9.49004 2.4833 9.38849 2.697 9.34219L8.125 8.16619L10.92 3.36819Z" fill="#9D8FF5"/>
</g>
</g>
<defs>
<clipPath id="clip0_23_2027">
<rect width="24" height="24" fill="white" transform="translate(0 0.5)"/>
</clipPath>
</defs>
</svg>
