<svg width="24" height="25" viewBox="0 0 24 25" fill="none" xmlns="http://www.w3.org/2000/svg">
<g id="mingcute:earth-2-fill" clip-path="url(#clip0_23_2039)">
<g id="Group">
<path id="Vector" d="M21.815 14.4248C21.4457 16.3009 20.5469 18.0321 19.225 19.4136C17.903 20.7952 16.2131 21.7693 14.355 22.2208C14.865 21.6188 15.307 20.8388 15.674 19.9538C16.039 19.0738 16.344 18.0528 16.57 16.9338C18.247 16.5018 19.766 15.8378 21.04 14.9888C21.308 14.8098 21.567 14.6218 21.815 14.4248ZM2.185 14.4248C2.433 14.6218 2.692 14.8098 2.96 14.9888C4.233 15.8378 5.752 16.5018 7.43 16.9338C7.655 18.0528 7.96 19.0738 8.326 19.9538C8.692 20.8378 9.134 21.6188 9.644 22.2208C7.78613 21.7691 6.09643 20.7949 4.77463 19.4134C3.45284 18.0319 2.55422 16.3008 2.185 14.4248ZM14.427 17.3448C14.2713 17.9731 14.0704 18.5894 13.826 19.1888C13.479 20.0268 13.097 20.6438 12.735 21.0348C12.365 21.4348 12.111 21.4998 12 21.4998C11.889 21.4998 11.636 21.4348 11.265 21.0348C10.903 20.6448 10.521 20.0268 10.174 19.1888C9.92955 18.5894 9.7287 17.9731 9.573 17.3448C10.361 17.4468 11.173 17.4998 12 17.4998C12.8115 17.5003 13.6222 17.4485 14.427 17.3448ZM14.963 11.2288C15.0412 12.5753 14.9937 13.9262 14.821 15.2638C13.924 15.4178 12.978 15.4998 12 15.4998C11.0544 15.5009 10.1103 15.4219 9.178 15.2638C9.00281 13.9264 8.9556 12.5752 9.037 11.2288C9.983 11.4058 10.977 11.4998 12 11.4998C12.9939 11.5009 13.9858 11.4102 14.963 11.2288ZM21.066 8.27481C21.526 9.26081 21.831 10.3348 21.946 11.4638C21.445 12.1368 20.769 12.7658 19.93 13.3238C19.06 13.9038 18.034 14.3938 16.891 14.7608C17.0214 13.4162 17.0355 12.0628 16.933 10.7158C17.8771 10.402 18.7784 9.97165 19.616 9.43481C20.1374 9.09834 20.6233 8.70967 21.066 8.27481ZM2.934 8.27481C3.364 8.70181 3.854 9.08981 4.384 9.43481C5.22152 9.97183 6.12283 10.4022 7.067 10.7158C6.96483 12.0628 6.97855 13.4161 7.108 14.7608C5.965 14.3938 4.939 13.9048 4.069 13.3248C3.231 12.7658 2.555 12.1368 2.053 11.4638C2.169 10.3338 2.473 9.26081 2.933 8.27381L2.934 8.27481ZM12 3.49981C12.11 3.49981 12.364 3.56581 12.735 3.96581C13.097 4.35581 13.479 4.97381 13.826 5.81181C14.216 6.75481 14.54 7.91981 14.748 9.23281C13.886 9.40581 12.963 9.49981 12 9.49981C11.0771 9.50157 10.1563 9.41213 9.251 9.23281C9.459 7.91981 9.783 6.75481 10.174 5.81281C10.521 4.97381 10.903 4.35681 11.264 3.96581C11.636 3.56581 11.889 3.49981 12 3.49981ZM14.355 2.77881C16.6087 3.32617 18.6023 4.63933 19.995 6.49381C19.569 6.98391 19.0742 7.40967 18.526 7.75781C17.9464 8.12989 17.329 8.4393 16.684 8.68081C16.453 7.31981 16.104 6.08581 15.674 5.04681C15.307 4.16181 14.866 3.38081 14.355 2.77881ZM9.645 2.77881C9.135 3.38081 8.693 4.16181 8.326 5.04681C7.896 6.08681 7.546 7.31981 7.316 8.68081C6.67102 8.4393 6.05355 8.1299 5.474 7.75781C4.92551 7.40971 4.43036 6.98395 4.004 6.49381C5.39696 4.63914 7.39095 3.32596 9.645 2.77881Z" fill="#9D8FF5"/>
</g>
</g>
<defs>
<clipPath id="clip0_23_2039">
<rect width="24" height="24" fill="white" transform="translate(0 0.5)"/>
</clipPath>
</defs>
</svg>
