<svg width="17" height="23" viewBox="0 0 17 23" fill="none" xmlns="http://www.w3.org/2000/svg">
<path d="M0 2.875V20.125C0 20.8875 0.298511 21.6188 0.829864 22.1579C1.36122 22.6971 2.08189 23 2.83333 23H16.2917C16.4795 23 16.6597 22.9243 16.7925 22.7895C16.9254 22.6547 17 22.4719 17 22.2812C17 22.0906 16.9254 21.9078 16.7925 21.773C16.6597 21.6382 16.4795 21.5625 16.2917 21.5625H2.83333C2.45761 21.5625 2.09728 21.4111 1.8316 21.1415C1.56592 20.8719 1.41667 20.5062 1.41667 20.125H15.5833C15.9591 20.125 16.3194 19.9735 16.5851 19.704C16.8507 19.4344 17 19.0687 17 18.6875V2.875C17 2.1125 16.7015 1.38123 16.1701 0.842068C15.6388 0.302901 14.9181 0 14.1667 0H2.83333C2.08189 0 1.36122 0.302901 0.829864 0.842068C0.298511 1.38123 0 2.1125 0 2.875ZM14.1667 1.4375C14.5424 1.4375 14.9027 1.58895 15.1684 1.85853C15.4341 2.12812 15.5833 2.49375 15.5833 2.875V18.6875H1.41667V2.875C1.41667 2.49375 1.56592 2.12812 1.8316 1.85853C2.09728 1.58895 2.45761 1.4375 2.83333 1.4375H14.1667ZM9.5625 5.39062C9.5625 5.10469 9.45056 4.83046 9.2513 4.62828C9.05204 4.42609 8.78179 4.3125 8.5 4.3125C8.21821 4.3125 7.94796 4.42609 7.7487 4.62828C7.54944 4.83046 7.4375 5.10469 7.4375 5.39062C7.4375 5.67656 7.54944 5.95079 7.7487 6.15297C7.94796 6.35516 8.21821 6.46875 8.5 6.46875C8.78179 6.46875 9.05204 6.35516 9.2513 6.15297C9.45056 5.95079 9.5625 5.67656 9.5625 5.39062ZM9.20833 15.0938C9.20833 15.2844 9.13371 15.4672 9.00087 15.602C8.86803 15.7368 8.68786 15.8125 8.5 15.8125C8.31214 15.8125 8.13197 15.7368 7.99913 15.602C7.86629 15.4672 7.79167 15.2844 7.79167 15.0938V9.34375C7.79167 9.15313 7.86629 8.97031 7.99913 8.83552C8.13197 8.70072 8.31214 8.625 8.5 8.625C8.68786 8.625 8.86803 8.70072 9.00087 8.83552C9.13371 8.97031 9.20833 9.15313 9.20833 9.34375V15.0938Z" fill="#02132F"/>
</svg>
