<svg width="21" height="21" viewBox="0 0 21 21" fill="none" xmlns="http://www.w3.org/2000/svg">
<path d="M13.3748 20.8021H7.62484C2.42109 20.8021 0.197754 18.5787 0.197754 13.375V7.62499C0.197754 2.42124 2.42109 0.197906 7.62484 0.197906H12.4165C12.8094 0.197906 13.1353 0.52374 13.1353 0.916656C13.1353 1.30957 12.8094 1.63541 12.4165 1.63541H7.62484C3.20692 1.63541 1.63525 3.20707 1.63525 7.62499V13.375C1.63525 17.7929 3.20692 19.3646 7.62484 19.3646H13.3748C17.7928 19.3646 19.3644 17.7929 19.3644 13.375V8.58332C19.3644 8.19041 19.6903 7.86457 20.0832 7.86457C20.4761 7.86457 20.8019 8.19041 20.8019 8.58332V13.375C20.8019 18.5787 18.5786 20.8021 13.3748 20.8021Z" fill="#02132F"/>
<path d="M20.0832 9.30207H16.2498C12.9723 9.30207 11.6978 8.02748 11.6978 4.74998V0.916646C11.6978 0.629146 11.8703 0.360812 12.1386 0.255396C12.4069 0.140396 12.7136 0.207479 12.9244 0.408729L20.5911 8.0754C20.7923 8.27665 20.8594 8.59291 20.7444 8.86124C20.6294 9.12957 20.3707 9.30207 20.0832 9.30207ZM13.1353 2.65123V4.74998C13.1353 7.22248 13.7773 7.86456 16.2498 7.86456H18.3486L13.1353 2.65123Z" fill="#02132F"/>
<path d="M11.4585 12.1771H5.7085C5.31558 12.1771 4.98975 11.8513 4.98975 11.4583C4.98975 11.0654 5.31558 10.7396 5.7085 10.7396H11.4585C11.8514 10.7396 12.1772 11.0654 12.1772 11.4583C12.1772 11.8513 11.8514 12.1771 11.4585 12.1771Z" fill="#02132F"/>
<path d="M9.54183 16.0104H5.7085C5.31558 16.0104 4.98975 15.6846 4.98975 15.2917C4.98975 14.8987 5.31558 14.5729 5.7085 14.5729H9.54183C9.93475 14.5729 10.2606 14.8987 10.2606 15.2917C10.2606 15.6846 9.93475 16.0104 9.54183 16.0104Z" fill="#02132F"/>
</svg>
