<svg width="18" height="20" viewBox="0 0 18 20" fill="none" xmlns="http://www.w3.org/2000/svg">
<path fill-rule="evenodd" clip-rule="evenodd" d="M9.702 0.127249L16.702 2.75225C17.0833 2.89518 17.4119 3.1511 17.6438 3.4858C17.8758 3.8205 18.0001 4.21803 18 4.62525V9.98825C18 11.6597 17.5346 13.2981 16.6559 14.7199C15.7772 16.1417 14.52 17.2908 13.025 18.0382L9.671 19.7142C9.46267 19.8184 9.23294 19.8727 9 19.8727C8.76706 19.8727 8.53733 19.8184 8.329 19.7142L4.975 18.0372C3.48004 17.2897 2.22277 16.1407 1.34407 14.7189C0.465371 13.2971 -3.5657e-05 11.6587 3.90162e-07 9.98725V4.62625C-0.00025401 4.21886 0.123906 3.82111 0.355868 3.48622C0.587831 3.15132 0.916534 2.89524 1.298 2.75225L8.298 0.127249C8.75062 -0.0424164 9.24938 -0.0424164 9.702 0.127249ZM9 11.9322C8.73478 11.9322 8.48043 12.0376 8.29289 12.2251C8.10536 12.4127 8 12.667 8 12.9322C8 13.1975 8.10536 13.4518 8.29289 13.6394C8.48043 13.8269 8.73478 13.9322 9 13.9322C9.26522 13.9322 9.51957 13.8269 9.70711 13.6394C9.89464 13.4518 10 13.1975 10 12.9322C10 12.667 9.89464 12.4127 9.70711 12.2251C9.51957 12.0376 9.26522 11.9322 9 11.9322ZM9 4.93225C8.75507 4.93228 8.51866 5.02221 8.33563 5.18496C8.15259 5.34772 8.03566 5.572 8.007 5.81525L8 5.93225V9.93225C8.00028 10.1871 8.09788 10.4323 8.27285 10.6176C8.44782 10.803 8.68695 10.9145 8.94139 10.9294C9.19584 10.9444 9.44638 10.8616 9.64183 10.698C9.83729 10.5344 9.9629 10.3023 9.993 10.0492L10 9.93225V5.93225C10 5.66703 9.89464 5.41268 9.70711 5.22514C9.51957 5.03761 9.26522 4.93225 9 4.93225Z" fill="#9D8FF5"/>
</svg>
